<?xml version="1.0" standalone="no"?>
<!DOCTYPE svg PUBLIC "-//W3C//DTD SVG 20010904//EN"
 "http://www.w3.org/TR/2001/REC-SVG-20010904/DTD/svg10.dtd">
<svg version="1.0" xmlns="http://www.w3.org/2000/svg"
 width="910.000000pt" height="212.000000pt" viewBox="0 0 910.000000 212.000000"
 preserveAspectRatio="xMidYMid meet">
<metadata>
Created by potrace 1.16, written by Peter Selinger 2001-2019
</metadata>
<g transform="translate(0.000000,212.000000) scale(0.100000,-0.100000)"
fill="#000000" stroke="none">
<path d="M1082 1148 c-94 -211 -174 -391 -177 -400 -6 -16 -1 -18 46 -18 l54
1 124 289 c69 160 128 287 132 283 4 -5 62 -134 128 -288 l119 -280 51 -3 c32
-2 51 1 51 8 0 13 -338 772 -349 783 -4 4 -84 -165 -179 -375z"/>
<path d="M2200 1518 c0 -8 -27 -186 -60 -396 -33 -211 -60 -385 -60 -388 0 -2
22 -4 48 -4 l49 0 33 238 c18 130 36 240 40 245 3 4 58 -106 122 -243 63 -138
119 -251 123 -251 5 0 60 112 124 250 64 138 118 251 121 251 3 0 21 -110 40
-245 l34 -245 48 0 c26 0 48 2 48 5 0 18 -122 790 -125 793 -2 3 -15 -20 -28
-49 -87 -194 -250 -545 -256 -551 -4 -4 -69 127 -145 293 -131 281 -156 330
-156 297z"/>
<path d="M3712 1490 c-11 -25 -90 -202 -176 -393 -86 -192 -156 -353 -156
-358 0 -6 23 -9 51 -7 l50 3 127 292 126 293 125 -295 126 -295 53 0 c28 0 52
3 52 6 0 6 -325 736 -345 774 l-13 25 -20 -45z"/>
<path d="M7938 1524 c-16 -26 -348 -776 -348 -784 0 -7 20 -10 51 -8 l50 3
127 292 126 293 125 -295 126 -295 53 0 c28 0 52 2 52 5 0 6 -337 761 -350
784 -4 7 -10 10 -12 5z"/>
<path d="M5709 1507 c-107 -30 -221 -132 -257 -230 -40 -108 -36 -236 10 -335
33 -69 111 -147 184 -183 52 -26 79 -32 153 -37 157 -9 280 48 364 168 53 77
70 142 65 255 -3 79 -8 101 -36 158 -40 81 -122 158 -202 189 -68 26 -213 34
-281 15z m257 -110 c107 -54 168 -155 168 -277 0 -122 -60 -221 -168 -278 -68
-36 -196 -38 -267 -5 -251 115 -232 482 30 580 57 21 175 12 237 -20z"/>
<path d="M4560 1122 l0 -392 45 0 45 0 0 169 0 168 75 6 c133 10 203 62 226
165 8 38 8 66 0 103 -25 115 -93 156 -275 166 l-116 6 0 -391z m237 273 c64
-27 85 -128 37 -184 -28 -33 -76 -51 -141 -51 l-43 0 0 131 0 131 58 -7 c31
-4 71 -13 89 -20z"/>
<path d="M6700 1120 l0 -390 210 0 210 0 0 45 0 45 -160 0 -160 0 0 345 0 345
-50 0 -50 0 0 -390z"/>
</g>
</svg>
